<svg viewBox="0 0 842 595" xmlns="http://www.w3.org/2000/svg">
  <defs>
    <linearGradient id="grad1" x1="0%" y1="0%" x2="100%" y2="100%">
      <stop offset="0%" style="stop-color:#AA7CF1;stop-opacity:1" />
      <stop offset="100%" style="stop-color:#542DAD;stop-opacity:1" />
    </linearGradient>
    <linearGradient id="grad2" x1="0%" y1="0%" x2="100%" y2="100%">
      <stop offset="0%" style="stop-color:#2A1E8D;stop-opacity:1" />
      <stop offset="100%" style="stop-color:#593EDC;stop-opacity:1" />
    </linearGradient>
    <linearGradient id="grad3" x1="0%" y1="0%" x2="100%" y2="100%">
      <stop offset="0%" style="stop-color:#7AE4FB;stop-opacity:1" />
      <stop offset="100%" style="stop-color:#1C68CE;stop-opacity:1" />
    </linearGradient>
  </defs>
  <path fill="url(#grad1)" d="M467,240s-153,4-188,151c-1,4-2,9-3,13 11-21,24-38,38-52 32-30,75-46,119-46h168c45-1,69-24,75-31l2-2 27-33H467z"/>
  <path fill="url(#grad2)" d="M435,302c-45,0-88,17-120,47-14,13-28,31-39,52-25,139,112,176,204,147 0,0-35,2-62-19-30-14-71-47-66-113 8-101,111-115,111-115H435z"/>
  <path fill="url(#grad3)" d="M604,302H462s-103,14-111,117c-6,67,36,97,65,111 -22-17-39-47-30-110 0,0,8-64,85-67h93c31,0,61-14,80-39l36-44C673,278,650,301,604,302"/>
</svg>